v 0.960485 0.960485 -0.960485
v 0.960485 -0.960485 -0.960485
v 0.960485 0.960485 0.960485
v 0.960485 -0.960485 0.960485
v -0.960485 0.960485 -0.960485
v -0.960485 -0.960485 -0.960485
v -0.960485 0.960485 0.960485
v -0.960485 -0.960485 0.960485
v 0.593612 0.000000 -1.554097
v -0.593612 0.000000 -1.554097
v 0.593612 0.000000 1.554097
v -0.593612 0.000000 1.554097
v 1.554097 0.593612 0.000000
v 1.554097 -0.593612 0.000000
v -1.554097 0.593612 0.000000
v -1.554097 -0.593612 0.000000
v 0.000000 1.554097 -0.593612
v 0.000000 1.554097 0.593612
v 0.000000 -1.554097 -0.593612
v 0.000000 -1.554097 0.593612
vn 0.3568 0.0000 0.9342
vn 0.5773 -0.5773 0.5773
vn 0.9342 -0.3568 0.0000
vn 0.9342 0.3568 0.0000
vn 0.5773 0.5773 0.5773
vn 0.0000 0.9342 0.3568
vn -0.5773 0.5773 0.5773
vn -0.3568 0.0000 0.9342
vn 0.5773 0.5773 -0.5773
vn 0.3568 0.0000 -0.9342
vn -0.3568 0.0000 -0.9342
vn -0.5773 0.5773 -0.5773
vn 0.0000 0.9342 -0.3568
vn 0.5773 -0.5773 -0.5773
vn -0.5773 -0.5773 0.5773
vn 0.0000 -0.9342 0.3568
vn -0.5773 -0.5773 -0.5773
vn -0.9342 -0.3568 0.0000
vn -0.9342 0.3568 0.0000
vn 0.0000 -0.9342 -0.3568
s 1
f 11//1 4//2 14//3 13//4 3//5
f 3//5 18//6 7//7 12//8 11//1
f 1//9 9//10 10//11 5//12 17//13
f 9//10 1//9 13//4 14//3 2//14
f 12//8 8//15 20//16 4//2 11//1
f 5//12 10//11 6//17 16//18 15//19
f 6//17 10//11 9//10 2//14 19//20
f 14//3 4//2 20//16 19//20 2//14
f 20//16 8//15 16//18 6//17 19//20
f 12//8 7//7 15//19 16//18 8//15
f 17//13 5//12 15//19 7//7 18//6
f 1//9 17//13 18//6 3//5 13//4
