# Blender v2.79 (sub 0) OBJ File: ''
# www.blender.org
v 0.014350 -1.733458 -0.100738
v 1.204701 -0.971303 0.576723
v -0.614745 -0.886518 1.245922
v -1.469122 -0.701405 -0.147287
v -0.386176 -0.670217 -1.481007
v 1.187809 -0.788510 -1.073400
v 0.309555 0.502400 1.370081
v -1.209539 0.643375 0.815333
v -1.134151 0.690350 -0.901378
v 0.422748 0.670051 -1.391501
v 1.455651 0.542216 -0.066567
v -0.008637 1.433850 -0.018918
v -0.345304 -1.577019 0.668777
v 0.680169 -1.509664 0.259749
v 0.374137 -1.129053 1.129062
v 1.413955 -0.950110 -0.296682
v 0.707367 -1.393577 -0.655004
v -0.820413 -1.419593 -0.095177
v -1.183823 -0.858166 0.629961
v -0.169308 -1.383413 -0.859894
v -1.031981 -0.839256 -0.866905
v 0.455554 -0.839393 -1.457662
v 1.587935 -0.150527 0.238836
v 1.527854 -0.093446 -0.676418
v -0.188669 -0.190813 1.524001
v 0.945990 -0.405674 1.234337
v -1.445351 -0.024632 0.394712
v -1.146887 -0.015313 1.172478
v -0.866672 -0.019737 -1.361534
v -1.455756 0.003049 -0.567756
v 0.934153 -0.041019 -1.397948
v 0.034985 -0.004737 -1.695134
v 1.105994 0.585840 0.744226
v -0.639102 0.722371 1.261852
v -1.255664 0.751829 -0.019336
v -0.364649 0.769581 -1.334723
v 1.038153 0.675074 -0.787092
v 0.164957 1.148808 0.793612
v 0.733600 1.239227 -0.036905
v -0.754546 1.297218 0.443942
v -0.630565 1.208065 -0.516758
v 0.227685 1.228728 -0.811930
vn -0.0079 -0.9950 -0.0992
vn 0.4347 -0.8772 0.2037
vn -0.2283 -0.8769 0.4230
vn 0.7385 -0.5315 0.4147
vn 0.8404 -0.5347 -0.0880
vn -0.5698 -0.8151 -0.1039
vn -0.1830 -0.8202 -0.5420
vn 0.3762 -0.8494 -0.3700
vn 0.9670 0.0003 0.2547
vn -0.3657 -0.4742 0.8009
vn 0.2434 -0.6144 0.7505
vn -0.0537 -0.0670 0.9963
vn -0.9230 -0.3768 -0.0782
vn -0.7846 -0.4878 0.3826
vn -0.9793 0.0393 0.1985
vn -0.3202 -0.4230 -0.8477
vn -0.6681 -0.5088 -0.5428
vn -0.5949 0.0113 -0.8037
vn 0.6783 -0.4217 -0.6016
vn 0.2021 -0.4980 -0.8433
vn 0.5703 0.1267 -0.8116
vn 0.5799 -0.1278 0.8046
vn -0.7046 -0.0176 0.7094
vn -0.9480 0.0491 -0.3144
vn -0.0151 0.0716 -0.9973
vn 0.9246 0.1001 -0.3675
vn 0.2685 0.4042 0.8744
vn 0.6856 0.4938 0.5349
vn 0.2048 0.8252 0.5264
vn -0.8000 0.4352 0.4131
vn -0.2829 0.5126 0.8106
vn -0.4179 0.8780 0.2335
vn -0.7145 0.4995 -0.4898
vn -0.8542 0.5187 -0.0356
vn -0.3925 0.8683 -0.3034
vn 0.3087 0.5428 -0.7810
vn -0.2432 0.5820 -0.7760
vn 0.1757 0.8747 -0.4516
vn 0.8661 0.4999 0.0012
vn 0.6634 0.5902 -0.4599
vn 0.5010 0.8650 0.0287
vn 0.0387 0.9992 0.0121
s 1
f 1//1 14//2 13//3
f 2//4 14//2 16//5
f 1//1 13//3 18//6
f 1//1 18//6 20//7
f 1//1 20//7 17//8
f 2//4 16//5 23//9
f 3//10 15//11 25//12
f 4//13 19//14 27//15
f 5//16 21//17 29//18
f 6//19 22//20 31//21
f 2//4 23//9 26//22
f 3//10 25//12 28//23
f 4//13 27//15 30//24
f 5//16 29//18 32//25
f 6//19 31//21 24//26
f 7//27 33//28 38//29
f 8//30 34//31 40//32
f 9//33 35//34 41//35
f 10//36 36//37 42//38
f 11//39 37//40 39//41
f 39//41 42//38 12//42
f 39//41 37//40 42//38
f 37//40 10//36 42//38
f 42//38 41//35 12//42
f 42//38 36//37 41//35
f 36//37 9//33 41//35
f 41//35 40//32 12//42
f 41//35 35//34 40//32
f 35//34 8//30 40//32
f 40//32 38//29 12//42
f 40//32 34//31 38//29
f 34//31 7//27 38//29
f 38//29 39//41 12//42
f 38//29 33//28 39//41
f 33//28 11//39 39//41
f 24//26 37//40 11//39
f 24//26 31//21 37//40
f 31//21 10//36 37//40
f 32//25 36//37 10//36
f 32//25 29//18 36//37
f 29//18 9//33 36//37
f 30//24 35//34 9//33
f 30//24 27//15 35//34
f 27//15 8//30 35//34
f 28//23 34//31 8//30
f 28//23 25//12 34//31
f 25//12 7//27 34//31
f 26//22 33//28 7//27
f 26//22 23//9 33//28
f 23//9 11//39 33//28
f 31//21 32//25 10//36
f 31//21 22//20 32//25
f 22//20 5//16 32//25
f 29//18 30//24 9//33
f 29//18 21//17 30//24
f 21//17 4//13 30//24
f 27//15 28//23 8//30
f 27//15 19//14 28//23
f 19//14 3//10 28//23
f 25//12 26//22 7//27
f 25//12 15//11 26//22
f 15//11 2//4 26//22
f 23//9 24//26 11//39
f 23//9 16//5 24//26
f 16//5 6//19 24//26
f 17//8 22//20 6//19
f 17//8 20//7 22//20
f 20//7 5//16 22//20
f 20//7 21//17 5//16
f 20//7 18//6 21//17
f 18//6 4//13 21//17
f 18//6 19//14 4//13
f 18//6 13//3 19//14
f 13//3 3//10 19//14
f 16//5 17//8 6//19
f 16//5 14//2 17//8
f 14//2 1//1 17//8
f 13//3 15//11 3//10
f 13//3 14//2 15//11
f 14//2 2//4 15//11
