v 0.7 0 0
v 0.6062177826491071 0.35 0
v 0.3500000000000001 0.6062177826491071 0
v 0.000000000000000043 0.7 0
v -0.34999999999999987 0.6062177826491071 0
v -0.606217782649107 0.3500000000000002 0
v -0.7 0.000000000000000086 0
v -0.6062177826491072 -0.3499999999999998 0
v -0.3500000000000003 -0.606217782649107 0
v -0.000000000000000129 -0.7 0
v 0.34999999999999953 -0.6062177826491073 0
v 0.6062177826491069 -0.3500000000000003 0
v 0.8210369523457081 0.21999618833714263 0.25980762113533157
v 0.6010407640085654 0.6010407640085653 0.25980762113533157
v 0.2199961883371428 0.821036952345708 0.25980762113533157
v -0.21999618833714252 0.8210369523457081 0.25980762113533157
v -0.6010407640085653 0.6010407640085654 0.25980762113533157
v -0.821036952345708 0.21999618833714285 0.25980762113533157
v -0.8210369523457081 -0.21999618833714268 0.2598076211353315
v -0.6010407640085655 -0.6010407640085653 0.25980762113533157
v -0.2199961883371433 -0.8210369523457078 0.25980762113533157
v 0.21999618833714224 -0.8210369523457082 0.25980762113533157
v 0.6010407640085648 -0.6010407640085661 0.25980762113533157
v 0.8210369523457078 -0.21999618833714332 0.25980762113533157
v 1.15 0 0.2598076211353316
v 0.9959292143521045 0.575 0.2598076211353316
v 0.5750000000000001 0.9959292143521044 0.2598076211353316
v 0.00000000000000007 1.15 0.2598076211353316
v -0.5749999999999997 0.9959292143521045 0.2598076211353316
v -0.9959292143521042 0.5750000000000004 0.25980762113533157
v -1.15 0.000000000000000141 0.2598076211353316
v -0.9959292143521046 -0.5749999999999996 0.2598076211353316
v -0.5750000000000005 -0.9959292143521042 0.2598076211353316
v -0.000000000000000211 -1.15 0.2598076211353316
v 0.5749999999999992 -0.9959292143521048 0.2598076211353316
v 0.9959292143521041 -0.5750000000000005 0.2598076211353316
v 1.2557035741757887 0.33646475863327696 0.000000000000000037
v 0.9192388155425119 0.9192388155425117 0.000000000000000037
v 0.33646475863327724 1.2557035741757887 0.000000000000000037
v -0.3364647586332768 1.2557035741757887 0.000000000000000037
v -0.9192388155425117 0.9192388155425119 0.000000000000000037
v -1.2557035741757887 0.3364647586332773 0.000000000000000037
v -1.2557035741757887 -0.336464758633277 0.000000000000000037
v -0.919238815542512 -0.9192388155425117 0.000000000000000037
v -0.33646475863327796 -1.2557035741757885 0.000000000000000037
v 0.3364647586332764 -1.255703574175789 0.000000000000000037
v 0.9192388155425109 -0.9192388155425129 0.000000000000000037
v 1.2557035741757885 -0.33646475863327807 0.000000000000000037
v 1.1500000000000001 0 -0.2598076211353315
v 0.9959292143521046 0.575 -0.2598076211353315
v 0.5750000000000002 0.9959292143521045 -0.2598076211353315
v 0.00000000000000007 1.1500000000000001 -0.2598076211353315
v -0.5749999999999998 0.9959292143521046 -0.2598076211353315
v -0.9959292143521044 0.5750000000000004 -0.25980762113533146
v -1.1500000000000001 0.000000000000000141 -0.2598076211353315
v -0.9959292143521048 -0.5749999999999997 -0.2598076211353315
v -0.5750000000000006 -0.9959292143521044 -0.2598076211353315
v -0.000000000000000211 -1.1500000000000001 -0.2598076211353315
v 0.5749999999999993 -0.995929214352105 -0.2598076211353315
v 0.9959292143521042 -0.5750000000000006 -0.2598076211353315
v 0.8210369523457083 0.21999618833714268 -0.2598076211353317
v 0.6010407640085655 0.6010407640085655 -0.2598076211353317
v 0.21999618833714288 0.8210369523457082 -0.2598076211353317
v -0.21999618833714257 0.8210369523457083 -0.2598076211353317
v -0.6010407640085655 0.6010407640085655 -0.2598076211353317
v -0.8210369523457082 0.2199961883371429 -0.2598076211353317
v -0.8210369523457083 -0.21999618833714274 -0.2598076211353316
v -0.6010407640085657 -0.6010407640085655 -0.2598076211353317
v -0.21999618833714335 -0.8210369523457081 -0.2598076211353317
v 0.2199961883371423 -0.8210369523457084 -0.2598076211353317
v 0.6010407640085649 -0.6010407640085662 -0.2598076211353317
v 0.8210369523457081 -0.21999618833714338 -0.2598076211353317
vn -1 0 0
vn -0.8660254037844386 -0.49999999999999983 0
vn -0.5000000000000001 -0.8660254037844386 0
vn -0.000000000000000061 -1 0
vn 0.49999999999999983 -0.8660254037844388 0
vn 0.8660254037844384 -0.5000000000000003 0
vn 1 -0.000000000000000122 0
vn 0.8660254037844388 0.4999999999999997 0
vn 0.5000000000000004 0.8660254037844384 0
vn 0.000000000000000184 1 0
vn -0.49999999999999933 0.8660254037844389 0
vn -0.8660254037844384 0.5000000000000004 0
vn -0.48296291314453427 -0.1294095225512604 0.8660254037844386
vn -0.35355339059327384 -0.35355339059327384 0.8660254037844386
vn -0.1294095225512605 -0.4829629131445342 0.8660254037844386
vn 0.12940952255126034 -0.48296291314453427 0.8660254037844386
vn 0.35355339059327384 -0.35355339059327384 0.8660254037844386
vn 0.4829629131445342 -0.12940952255126054 0.8660254037844386
vn 0.4829629131445344 0.12940952255126045 0.8660254037844386
vn 0.3535533905932739 0.35355339059327384 0.8660254037844386
vn 0.12940952255126079 0.4829629131445341 0.8660254037844386
vn -0.12940952255126018 0.48296291314453427 0.8660254037844386
vn -0.35355339059327345 0.35355339059327423 0.8660254037844386
vn -0.4829629131445341 0.1294095225512608 0.8660254037844386
vn 0.49999999999999983 0 0.8660254037844388
vn 0.4330127018922192 0.24999999999999986 0.8660254037844388
vn 0.24999999999999994 0.43301270189221913 0.8660254037844388
vn 0.000000000000000031 0.49999999999999983 0.8660254037844388
vn -0.2499999999999998 0.4330127018922192 0.8660254037844388
vn -0.43301270189221913 0.2500000000000001 0.8660254037844386
vn -0.49999999999999983 0.000000000000000061 0.8660254037844388
vn -0.4330127018922192 -0.24999999999999978 0.8660254037844388
vn -0.2500000000000001 -0.433012701892219 0.8660254037844386
vn -0.000000000000000092 -0.49999999999999983 0.8660254037844388
vn 0.24999999999999958 -0.4330127018922194 0.8660254037844388
vn 0.433012701892219 -0.25000000000000017 0.8660254037844388
vn 0.9659258262890682 0.2588190451025207 0.000000000000000122
vn 0.7071067811865476 0.7071067811865475 0.000000000000000122
vn 0.25881904510252096 0.9659258262890682 0.000000000000000122
vn -0.25881904510252063 0.9659258262890684 0.000000000000000122
vn -0.7071067811865475 0.7071067811865476 0.000000000000000122
vn -0.9659258262890682 0.258819045102521 0.000000000000000122
vn -0.9659258262890682 -0.25881904510252074 0.000000000000000122
vn -0.7071067811865476 -0.7071067811865474 0.000000000000000122
vn -0.2588190451025215 -0.965925826289068 0.000000000000000122
vn 0.2588190451025203 -0.9659258262890684 0.000000000000000122
vn 0.7071067811865467 -0.7071067811865482 0.000000000000000122
vn 0.965925826289068 -0.25881904510252157 0.000000000000000122
vn 0.5000000000000004 0 -0.8660254037844384
vn 0.43301270189221974 0.25000000000000017 -0.8660254037844384
vn 0.2500000000000003 0.4330127018922197 -0.8660254037844384
vn 0.000000000000000031 0.5000000000000004 -0.8660254037844384
vn -0.25000000000000017 0.43301270189221974 -0.8660254037844384
vn -0.4330127018922197 0.25000000000000044 -0.8660254037844383
vn -0.5000000000000004 0.000000000000000061 -0.8660254037844384
vn -0.4330127018922198 -0.25000000000000006 -0.8660254037844383
vn -0.2500000000000004 -0.4330127018922196 -0.8660254037844383
vn -0.000000000000000092 -0.5000000000000004 -0.8660254037844384
vn 0.24999999999999992 -0.43301270189221996 -0.8660254037844384
vn 0.4330127018922196 -0.25000000000000044 -0.8660254037844384
vn -0.48296291314453355 -0.1294095225512602 -0.8660254037844389
vn -0.3535533905932733 -0.3535533905932733 -0.8660254037844389
vn -0.12940952255126031 -0.48296291314453343 -0.8660254037844389
vn 0.12940952255126015 -0.48296291314453355 -0.8660254037844389
vn 0.3535533905932733 -0.3535533905932733 -0.8660254037844389
vn 0.48296291314453343 -0.12940952255126034 -0.8660254037844389
vn 0.48296291314453366 0.12940952255126026 -0.8660254037844389
vn 0.3535533905932734 0.3535533905932733 -0.8660254037844389
vn 0.1294095225512606 0.48296291314453343 -0.8660254037844389
vn -0.12940952255125998 0.48296291314453355 -0.8660254037844389
vn -0.35355339059327295 0.35355339059327373 -0.8660254037844389
vn -0.48296291314453343 0.12940952255126062 -0.8660254037844389
f 1//1 13//13 2//2
f 1//1 24//24 13//13
f 2//2 14//14 3//3
f 2//2 13//13 14//14
f 3//3 15//15 4//4
f 3//3 14//14 15//15
f 4//4 16//16 5//5
f 4//4 15//15 16//16
f 5//5 17//17 6//6
f 5//5 16//16 17//17
f 6//6 18//18 7//7
f 6//6 17//17 18//18
f 7//7 19//19 8//8
f 7//7 18//18 19//19
f 8//8 20//20 9//9
f 8//8 19//19 20//20
f 9//9 21//21 10//10
f 9//9 20//20 21//21
f 10//10 22//22 11//11
f 10//10 21//21 22//22
f 11//11 23//23 12//12
f 11//11 22//22 23//23
f 12//12 24//24 1//1
f 12//12 23//23 24//24
f 13//13 26//26 14//14
f 13//13 25//25 26//26
f 14//14 27//27 15//15
f 14//14 26//26 27//27
f 15//15 28//28 16//16
f 15//15 27//27 28//28
f 16//16 29//29 17//17
f 16//16 28//28 29//29
f 17//17 30//30 18//18
f 17//17 29//29 30//30
f 18//18 31//31 19//19
f 18//18 30//30 31//31
f 19//19 32//32 20//20
f 19//19 31//31 32//32
f 20//20 33//33 21//21
f 20//20 32//32 33//33
f 21//21 34//34 22//22
f 21//21 33//33 34//34
f 22//22 35//35 23//23
f 22//22 34//34 35//35
f 23//23 36//36 24//24
f 23//23 35//35 36//36
f 24//24 25//25 13//13
f 24//24 36//36 25//25
f 25//25 37//37 26//26
f 25//25 48//48 37//37
f 26//26 38//38 27//27
f 26//26 37//37 38//38
f 27//27 39//39 28//28
f 27//27 38//38 39//39
f 28//28 40//40 29//29
f 28//28 39//39 40//40
f 29//29 41//41 30//30
f 29//29 40//40 41//41
f 30//30 42//42 31//31
f 30//30 41//41 42//42
f 31//31 43//43 32//32
f 31//31 42//42 43//43
f 32//32 44//44 33//33
f 32//32 43//43 44//44
f 33//33 45//45 34//34
f 33//33 44//44 45//45
f 34//34 46//46 35//35
f 34//34 45//45 46//46
f 35//35 47//47 36//36
f 35//35 46//46 47//47
f 36//36 48//48 25//25
f 36//36 47//47 48//48
f 37//37 50//50 38//38
f 37//37 49//49 50//50
f 38//38 51//51 39//39
f 38//38 50//50 51//51
f 39//39 52//52 40//40
f 39//39 51//51 52//52
f 40//40 53//53 41//41
f 40//40 52//52 53//53
f 41//41 54//54 42//42
f 41//41 53//53 54//54
f 42//42 55//55 43//43
f 42//42 54//54 55//55
f 43//43 56//56 44//44
f 43//43 55//55 56//56
f 44//44 57//57 45//45
f 44//44 56//56 57//57
f 45//45 58//58 46//46
f 45//45 57//57 58//58
f 46//46 59//59 47//47
f 46//46 58//58 59//59
f 47//47 60//60 48//48
f 47//47 59//59 60//60
f 48//48 49//49 37//37
f 48//48 60//60 49//49
f 49//49 61//61 50//50
f 49//49 72//72 61//61
f 50//50 62//62 51//51
f 50//50 61//61 62//62
f 51//51 63//63 52//52
f 51//51 62//62 63//63
f 52//52 64//64 53//53
f 52//52 63//63 64//64
f 53//53 65//65 54//54
f 53//53 64//64 65//65
f 54//54 66//66 55//55
f 54//54 65//65 66//66
f 55//55 67//67 56//56
f 55//55 66//66 67//67
f 56//56 68//68 57//57
f 56//56 67//67 68//68
f 57//57 69//69 58//58
f 57//57 68//68 69//69
f 58//58 70//70 59//59
f 58//58 69//69 70//70
f 59//59 71//71 60//60
f 59//59 70//70 71//71
f 60//60 72//72 49//49
f 60//60 71//71 72//72
f 61//61 2//2 62//62
f 61//61 1//1 2//2
f 62//62 3//3 63//63
f 62//62 2//2 3//3
f 63//63 4//4 64//64
f 63//63 3//3 4//4
f 64//64 5//5 65//65
f 64//64 4//4 5//5
f 65//65 6//6 66//66
f 65//65 5//5 6//6
f 66//66 7//7 67//67
f 66//66 6//6 7//7
f 67//67 8//8 68//68
f 67//67 7//7 8//8
f 68//68 9//9 69//69
f 68//68 8//8 9//9
f 69//69 10//10 70//70
f 69//69 9//9 10//10
f 70//70 11//11 71//71
f 70//70 10//10 11//11
f 71//71 12//12 72//72
f 71//71 11//11 12//12
f 72//72 1//1 61//61
f 72//72 12//12 1//1
